<svg xmlns="http://www.w3.org/2000/svg" viewBox="0 0 1440 320">
    <path fill="#99aa99" fill-opacity="0.2" d="M0,224L60,224C120,224,240,224,360,229.3C480,235,600,245,720,256C840,267,960,277,1080,277.3C1200,277,1320,267,1380,261.3L1440,256L1440,0L1380,0C1320,0,1200,0,1080,0C960,0,840,0,720,0C600,0,480,0,360,0C240,0,120,0,60,0L0,0Z"></path>
    <path fill="#99aa99" fill-opacity="1" d="M0,224L60,224C120,224,240,224,360,229.3C480,235,600,245,720,256C840,267,960,277,1080,277.3C1200,277,1320,267,1380,261.3L1440,256L1440,0L1380,0C1320,0,1200,0,1080,0C960,0,840,0,720,0C600,0,480,0,360,0C240,0,120,0,60,0L0,0Z" transform="translate(0,-8)"></path>
</svg>
